<svg width="24" height="24" viewBox="0 0 24 24" fill="none" xmlns="http://www.w3.org/2000/svg">
<path fill-rule="evenodd" clip-rule="evenodd" d="M9.58801 10.8235C9.53198 10.8578 9.48325 10.9029 9.44463 10.956C9.406 11.0092 9.37823 11.0694 9.36291 11.1333C9.34758 11.1972 9.345 11.2635 9.35532 11.3284C9.36563 11.3933 9.38863 11.4555 9.42301 11.5115C9.88251 12.2605 10.273 13.004 10.533 13.6795C10.5806 13.8033 10.6755 13.9031 10.7966 13.957C10.9178 14.0109 11.0555 14.0144 11.1793 13.9668C11.3031 13.9192 11.4029 13.8243 11.4567 13.7031C11.5106 13.5819 11.5141 13.4443 11.4665 13.3205C11.1775 12.5685 10.7535 11.768 10.2755 10.9885C10.2062 10.8755 10.0949 10.7946 9.96593 10.7637C9.837 10.7327 9.70107 10.7542 9.58801 10.8235ZM14.795 10.3465C14.902 10.4248 14.9735 10.5423 14.9939 10.6733C15.0142 10.8043 14.9817 10.938 14.9035 11.045C14.325 11.8365 13.8155 12.895 13.457 13.703C13.4304 13.763 13.3921 13.8172 13.3445 13.8625C13.2969 13.9077 13.2409 13.9431 13.1796 13.9667C13.1183 13.9903 13.053 14.0016 12.9874 13.9999C12.9217 13.9983 12.857 13.9837 12.797 13.957C12.737 13.9304 12.6828 13.8921 12.6376 13.8445C12.5923 13.797 12.5569 13.7409 12.5333 13.6796C12.5097 13.6183 12.4985 13.553 12.5001 13.4874C12.5018 13.4217 12.5164 13.357 12.543 13.297C12.905 12.482 13.45 11.339 14.0965 10.455C14.1748 10.348 14.2923 10.2765 14.4233 10.2562C14.5543 10.2358 14.688 10.2683 14.795 10.3465Z" fill="#E4E4E4"/>
<path fill-rule="evenodd" clip-rule="evenodd" d="M13.62 6.0185C14.791 4.6795 21.0525 3 21.0525 3C21.0525 3 19.988 9.6975 19.0515 10.7685C18.354 11.5665 16.1315 11.068 15.0425 10.7615C15.8565 9.513 16.8 8.2935 17.6295 7.3255C17.7141 7.22463 17.7556 7.09446 17.7448 6.96323C17.734 6.832 17.6719 6.71032 17.572 6.6246C17.472 6.53888 17.3423 6.49604 17.211 6.50538C17.0797 6.51473 16.9573 6.5755 16.8705 6.6745C16.034 7.6505 15.0645 8.8995 14.2155 10.198C13.7385 9.31 12.694 7.0775 13.62 6.0185ZM5.5 15H3V21H5.5V19.9785C6.01 19.9575 6.763 19.9305 7.0235 19.941C7.917 19.9775 8.5835 20.1905 9.2585 20.406C9.8875 20.6065 10.523 20.8095 11.3545 20.873C11.5635 20.889 11.767 20.9095 11.9645 20.929C12.676 21.001 13.3075 21.065 13.8295 20.873C14.4955 20.628 18.3025 18.7645 18.7785 18.274C19.2545 17.784 19.0165 16.46 17.541 16.705C16.813 16.826 15.9695 17.174 15.204 17.4895C14.4185 17.813 13.7155 18.103 13.3055 18.078C12.4965 18.029 10.3555 17.637 10.3555 17.637L12.814 17.667C12.814 17.667 13.1615 17.685 13.639 17.3425C14.1165 17 14.543 16.0185 13.829 16.0185C13.115 16.0185 12.354 15.7735 12.354 15.7735L9.308 15.087C9.308 15.087 8.261 14.891 7.833 15.087C7.48 15.2485 6.009 15.7755 5.5 15.957V15ZM4.439 4.835C4.439 4.835 9.6065 6.221 10.5725 7.3255C11.319 8.179 10.5145 9.9565 10.1095 10.7215C9.57868 9.88794 9.0056 9.08205 8.3925 8.307C8.35182 8.25546 8.30139 8.21243 8.24409 8.18038C8.18678 8.14832 8.12372 8.12787 8.05851 8.12018C7.9933 8.1125 7.92722 8.11774 7.86403 8.13559C7.80085 8.15345 7.74179 8.18357 7.69025 8.22425C7.63871 8.26493 7.59568 8.31536 7.56362 8.37266C7.53157 8.42997 7.51112 8.49303 7.50343 8.55824C7.49575 8.62345 7.50099 8.68953 7.51884 8.75272C7.5367 8.8159 7.56682 8.87496 7.6075 8.9265C8.2034 9.67987 8.76013 10.4634 9.2755 11.274C8.3415 11.527 6.6405 11.8755 6.0905 11.246C5.3175 10.362 4.439 4.8345 4.439 4.8345" fill="#E4E4E4"/>
</svg>
