<svg width="24" height="24" viewBox="0 0 24 24" fill="none" xmlns="http://www.w3.org/2000/svg">
<path d="M18.6264 3.85718H5.08795C4.40821 3.85718 3.85718 4.40821 3.85718 5.08795V18.6264C3.85718 19.3061 4.40821 19.8572 5.08795 19.8572H18.6264C19.3061 19.8572 19.8572 19.3061 19.8572 18.6264V5.08795C19.8572 4.40821 19.3061 3.85718 18.6264 3.85718Z" stroke="white" stroke-linecap="round" stroke-linejoin="round"/>
<path d="M6.93408 8.78015H13.0879" stroke="white" stroke-linecap="round" stroke-linejoin="round"/>
<path d="M14.9343 10.6265C15.9539 10.6265 16.7804 9.79996 16.7804 8.78036C16.7804 7.76076 15.9539 6.9342 14.9343 6.9342C13.9147 6.9342 13.0881 7.76076 13.0881 8.78036C13.0881 9.79996 13.9147 10.6265 14.9343 10.6265Z" stroke="white" stroke-linecap="round" stroke-linejoin="round"/>
<path d="M16.7804 14.9342H13.0881" stroke="white" stroke-linecap="round" stroke-linejoin="round"/>
<path d="M9.39562 14.9342H6.93408" stroke="white" stroke-linecap="round" stroke-linejoin="round"/>
<path d="M11.2417 16.7803C12.2613 16.7803 13.0878 15.9538 13.0878 14.9342C13.0878 13.9146 12.2613 13.088 11.2417 13.088C10.2221 13.088 9.39551 13.9146 9.39551 14.9342C9.39551 15.9538 10.2221 16.7803 11.2417 16.7803Z" stroke="white" stroke-linecap="round" stroke-linejoin="round"/>
</svg>
