<svg width="24" height="24" viewBox="0 0 24 24" fill="none" xmlns="http://www.w3.org/2000/svg">
<path d="M20.998 3V5C20.998 6.85652 20.2606 8.63699 18.9478 9.94975C17.635 11.2625 15.8546 12 13.998 12H12.998V13H17.998V20C17.998 20.5304 17.7873 21.0391 17.4123 21.4142C17.0372 21.7893 16.5285 22 15.998 22H7.99805C7.46761 22 6.95891 21.7893 6.58383 21.4142C6.20876 21.0391 5.99805 20.5304 5.99805 20V13H10.998V10C10.998 8.14349 11.7355 6.36301 13.0483 5.05025C14.3611 3.7375 16.1415 3 17.998 3H20.998ZM5.49805 2C6.69802 1.99903 7.88067 2.28639 8.9464 2.83788C10.0121 3.38937 10.9298 4.18885 11.622 5.169C10.5659 6.55783 9.99528 8.2552 9.99805 10V11H9.49805C7.50892 11 5.60127 10.2098 4.19475 8.8033C2.78822 7.39678 1.99805 5.48913 1.99805 3.5V2H5.49805Z" fill="#E4E4E4"/>
</svg>
